<?xml version="1.0" encoding="utf-8"?>
<!-- Generator: Adobe Illustrator 25.4.1, SVG Export Plug-In . SVG Version: 6.00 Build 0)  -->
<svg version="1.1" id="Layer_1" xmlns="http://www.w3.org/2000/svg" xmlns:xlink="http://www.w3.org/1999/xlink" x="0px" y="0px"
	 viewBox="0 0 128 128" style="enable-background:new 0 0 128 128;" xml:space="preserve">
<style type="text/css">
	.st0{fill:#87C763;}
</style>
<path class="st0" d="M64,6.8C32.4,6.8,6.8,32.4,6.8,64c0,31.6,25.6,57.2,57.2,57.2c31.6,0,57.2-25.6,57.2-57.2
	C121.2,32.4,95.6,6.8,64,6.8z M80,107.6c-0.3-4.5-0.7-10-0.7-12.3c-0.1-1.7-0.3-6.1-4.5-8.9C91.3,85,99.2,75.9,99.7,63.8
	c0.5-6.9-2.3-12.9-7.1-17.8c0.2-5.2-0.2-11.4-0.5-14.1c-3.7-1.1-12.4,3.5-14.8,5.5c-5.1-2-17.6-2.7-25.3,0
	c-5.4-3.8-11.5-6.1-14.9-5.5c-3.1,6.8-1.1,13.3-0.5,14.1c-4,3.6-9.5,8.1-8,17.5c2.4,13.8,12.1,21.2,27.7,23
	c-3.3,0.7-3.9,3.2-4.2,4.2c-10.5,4.3-13.5-2.7-14.8-4.5c-4.4-5.4-8.3-3.9-8.6-3.8c-0.2,0.1-0.4,0.4-0.4,0.6c0.2,1.2,2.6,2.4,2.7,2.5
	c3.2,2.4,4.4,6.8,5.2,8c4.6,7.6,15.5,4.5,15.6,4.5c0,0.7-0.1,6.3-0.1,10.7C32,103.4,17.5,85.4,17.5,64c0-25.7,20.8-46.4,46.4-46.4
	c25.7,0,46.5,20.8,46.5,46.4C110.4,84,97.8,101,80,107.6z"/>
</svg>
