<?xml version="1.0" encoding="utf-8"?>
<!-- Generator: Adobe Illustrator 25.4.1, SVG Export Plug-In . SVG Version: 6.00 Build 0)  -->
<svg version="1.1" id="Layer_1" xmlns="http://www.w3.org/2000/svg" xmlns:xlink="http://www.w3.org/1999/xlink" x="0px" y="0px"
	 viewBox="0 0 128 128" style="enable-background:new 0 0 128 128;" xml:space="preserve">
<style type="text/css">
	.st0{fill:#87C763;}
</style>
<g>
	<path class="st0" d="M120.3,42.2c-0.3-6-1.2-10.2-2.6-13.7c-1.4-3.8-3.7-7.2-6.5-10c-2.8-2.9-6.3-5.1-10-6.5
		c-3.6-1.4-7.7-2.4-13.7-2.6C81.3,9,79.4,8.9,64,8.9S46.7,9,40.7,9.2c-6,0.3-10.2,1.2-13.7,2.6c-3.8,1.4-7.2,3.7-10,6.5
		c-2.9,2.8-5.1,6.3-6.5,10C9,32,8,36.1,7.7,42.2c-0.3,6.1-0.4,8-0.4,23.4s0.1,17.3,0.3,23.3C8,94.9,9,99,10.4,102.6
		c1.4,3.8,3.7,7.2,6.5,10c2.8,2.9,6.3,5.1,10,6.5c3.6,1.4,7.7,2.4,13.7,2.6c6,0.3,8,0.3,23.3,0.3s17.3-0.1,23.3-0.3
		c6-0.3,10.2-1.2,13.7-2.6c7.6-2.9,13.6-9,16.6-16.6c1.4-3.6,2.4-7.7,2.6-13.7c0.3-6,0.3-8,0.3-23.3S120.6,48.2,120.3,42.2z
		 M106.9,86.8c-0.2,5.1-1.1,7.9-1.8,9.8c-1.8,4.6-5.4,8.2-10,10c-1.9,0.7-4.6,1.6-9.8,1.8c-5.6,0.2-7.2,0.3-21.3,0.3
		s-15.7-0.1-21.3-0.3c-5.1-0.2-7.9-1.1-9.8-1.8c-2.3-0.8-4.4-2.2-6-3.9c-1.7-1.7-3.1-3.8-3.9-6c-0.7-1.9-1.6-4.7-1.8-9.8
		c-0.2-5.6-0.3-7.2-0.3-21.3s0.1-15.7,0.3-21.3c0.2-5.1,1.1-7.9,1.8-9.8c0.8-2.3,2.2-4.4,4-6.1c1.7-1.7,3.8-3.1,6-3.9
		c1.9-0.7,4.7-1.6,9.8-1.8c5.6-0.2,7.2-0.3,21.3-0.3c14.1,0,15.7,0.1,21.3,0.3c5.1,0.2,7.9,1.1,9.8,1.8c2.3,0.8,4.4,2.2,6,3.9
		c1.7,1.7,3.1,3.8,3.9,6.1c0.7,1.9,1.6,4.6,1.8,9.8c0.2,5.6,0.3,7.2,0.3,21.3S107.1,81.2,106.9,86.8z"/>
	<path class="st0" d="M64,46.1c-10.7,0-19.4,8.7-19.4,19.4S53.3,85,64,85c10.7,0,19.4-8.7,19.4-19.4S74.7,46.1,64,46.1z M64,76.3
		c-6,0-10.8-4.8-10.8-10.8S58,54.7,64,54.7c6,0,10.8,4.8,10.8,10.8S70,76.3,64,76.3z"/>
	<path class="st0" d="M90.5,45.3c0,3.5-2.8,6.3-6.3,6.3c-3.5,0-6.3-2.8-6.3-6.3c0-3.5,2.8-6.3,6.3-6.3
		C87.7,39.1,90.5,41.9,90.5,45.3z"/>
</g>
</svg>
