<?xml version="1.0" encoding="utf-8"?>
<!-- Generator: Adobe Illustrator 25.4.1, SVG Export Plug-In . SVG Version: 6.00 Build 0)  -->
<svg version="1.1" id="Layer_1" xmlns="http://www.w3.org/2000/svg" xmlns:xlink="http://www.w3.org/1999/xlink" x="0px" y="0px"
	 viewBox="0 0 64 19.8" style="enable-background:new 0 0 64 19.8;" xml:space="preserve">
<style type="text/css">
	.st0{fill:#85BE55;}
</style>
<g>
	<path class="st0" d="M0,2.5C0.4,0.4,2.2,0.1,3.9,0c3.2-0.2,6.4,0.3,9.5,1c1.9,0.4,3.8,0.6,5.8,0.6c7.8,0,15.5-0.1,23.3,0
		c3.4,0,6.7-0.2,10-1c2.5-0.6,5.1-0.9,7.8-0.7c0.9,0.1,1.7,0.3,2.5,0.6c0.7,0.2,1.1,0.8,1.2,1.5c0.5,1.9-0.3,3.4-1.6,4.7
		C60.8,8.2,59,9.1,57,9.5c-2,0.4-4,0.6-6,0.8c-1.1,0.1-1.3,0.4-0.7,1.3c0.4,0.6,1,1.1,1.6,1.6c1.1,0.9,1.6,2,1.4,3.4
		c-0.2,1.8-1.8,3.3-3.7,3.3c-1.9,0-3.5-1.5-3.7-3.3c0-0.1,0-0.2,0-0.3c0.4-1.5-0.4-2.5-1.2-3.7c-1.6-2.3-1.4-2.2-4.3-2.2
		c-7,0-14.1,0-21.1,0c-1,0-1.8,0.3-2.3,1.2c-0.4,0.7-0.9,1.3-1.4,1.9c-0.5,0.7-0.7,1.4-0.6,2.2c0.3,2-1.1,3.8-3,4.1
		c-1.9,0.4-3.8-0.8-4.3-2.7c-0.4-1.5,0-2.8,1.2-3.8c1-0.8,1.9-1.7,2.3-2.9C10.3,10.1,9.2,10,8,9.8C5.9,9.4,3.9,8.6,2.2,7.2
		C1.1,6.3,0.4,5.2,0,3.8C0,3.4,0,2.9,0,2.5z M13.4,16c0-1-0.8-1.8-1.8-1.8c-1,0-1.8,0.8-1.8,1.8c0,1,0.8,1.8,1.8,1.8
		C12.6,17.8,13.4,17,13.4,16z M51.5,16c0-1-0.8-1.8-1.8-1.8c-1,0-1.8,0.8-1.8,1.8c0,1,0.8,1.8,1.8,1.8C50.8,17.8,51.5,17,51.5,16z"
		/>
</g>
</svg>
