<?xml version="1.0" encoding="utf-8"?>
<!-- Generator: Adobe Illustrator 25.4.1, SVG Export Plug-In . SVG Version: 6.00 Build 0)  -->
<svg version="1.1" id="Layer_1" xmlns="http://www.w3.org/2000/svg" xmlns:xlink="http://www.w3.org/1999/xlink" x="0px" y="0px"
	 viewBox="0 0 394.8 386.9" style="enable-background:new 0 0 394.8 386.9;" xml:space="preserve">
<g>
	<path d="M143.3,44.2c32.6,0,63.1-0.3,93.5,0.4c3.3,0.1,7.8,5.7,9.5,9.7c29.3,69.5,58.2,139.2,87.2,208.9c2.4,5.7,5,11.3,7,17.1
		c7.2,21.5,18.7,37.9,44.8,37.4c0,6.1,0,11,0,15.3c-61.8,0-123.3,0-185,0c-3.6-12.6-2.9-13.9,10.2-15.8c27.5-4.1,39.1-12.4,24.6-43
		c-6-12.8-10.9-26.1-16-39.3c-2.2-5.7-5.1-8.6-11.8-8.5c-30.2,0.4-60.3-0.1-90.5,0.5c-3.8,0.1-9.4,3.8-11.1,7.3
		c-6.8,14-12.7,28.5-18.5,43c-10.3,25.5-0.6,39.9,27.2,40.7c3.2,0.1,6.5,0,10.7,0c0,5.8,0,11,0,17.4c-3.7,0.2-7.6,0.5-11.4,0.5
		c-28.4,0-56.7,0-85.1,0c-15.1,0-15.1,0-13.7-16c0.5-0.5,1-1.4,1.6-1.4c24.4-1.5,37.4-15.3,46.5-37.5c27.9-67.7,57.4-134.8,86.7-202
		c3-7,3.4-12.9-0.1-19.5C147.3,55.3,145.9,50.8,143.3,44.2z M116.7,207c31,0,59.9,0,90.8,0c-14.9-37.6-29.1-73.3-43.4-109.1
		c-1,0-2-0.1-3-0.1C146.5,133.8,131.9,169.7,116.7,207z"/>
</g>
</svg>
