<svg id="Layer_1" data-name="Layer 1" xmlns="http://www.w3.org/2000/svg" viewBox="0 0 20 20"><defs><style>.cls-1{fill:#162E3D;fill-rule:evenodd;}</style></defs><path id="Path_1464" data-name="Path 1464" class="cls-1" d="M12.92,13.25H11.41v1.51h1.51Zm-2.13-4H9.28v1.5h1.51Zm2.13,2H11.41v1.51h1.51Zm2.13-2H13.54v1.5h1.51Zm-4.26,2H9.28v1.51h1.51Zm2.13-2H11.41v1.5h1.51Zm2.13,2H13.54v1.51h1.51Zm-8.51,2H5v1.51H6.54Zm0-2H5v1.51H6.54ZM14.66,3.9v.66a1.26,1.26,0,1,1-1.78.11A1.14,1.14,0,0,1,13,4.56V3.9H7.12v.66a1.25,1.25,0,1,1-1.77.11l.11-.11V3.9H2.66V17.27H17.34V3.9Zm1.34,12H4V7.57H16ZM8.67,9.22H7.16v1.5H8.67Zm0,4H7.16v1.5H8.67Zm2.12,0H9.28v1.5h1.51Zm-2.12-2H7.16v1.51H8.67Zm-2.38-5a.62.62,0,0,0,.62-.62V3.35a.63.63,0,0,0-1.25,0V5.61a.63.63,0,0,0,.63.62Zm7.53,0a.63.63,0,0,0,.63-.62V3.35a.63.63,0,0,0-1.25,0V5.61a.62.62,0,0,0,.62.62Z"/></svg>