<?xml version="1.0" encoding="utf-8"?>
<!-- Generator: Adobe Illustrator 25.2.3, SVG Export Plug-In . SVG Version: 6.00 Build 0)  -->
<svg version="1.1" id="Layer_1" xmlns="http://www.w3.org/2000/svg" xmlns:xlink="http://www.w3.org/1999/xlink" x="0px" y="0px"
	 viewBox="0 0 20 20" style="enable-background:new 0 0 20 20;" xml:space="preserve">
<style type="text/css">
	.st0{fill:#F3E8D5;}
</style>
<path class="st0" d="M10.9,2.9c-0.2,0.5-0.4,0.9-0.6,1.1c-0.2,0.3-0.6,0.4-1,0.6C8.9,4.7,8.3,4.8,7.7,4.8v1.6h2.4v10.9
	c0,0,0.4,0.1,1.1,0.1s1.2-0.1,1.2-0.1V2.9H10.9z"/>
<g>
	<path class="st0" d="M11.3,16c-0.4,0-0.8,0-1.1,0v1.3c0,0,0.2,0,0.6,0c0.2,0,0.3,0,0.5,0c0,0,0.1,0,0.1,0c0.1,0,0.2,0,0.4,0
		c0.4,0,0.7,0,0.7,0v-1.3C12.1,16.1,11.7,16,11.3,16z"/>
	<path class="st0" d="M9.7,16.1c-1.1,0.1-1.9,0.3-1.9,0.6c0,0.3,0.8,0.5,1.9,0.6V16.1z"/>
	<path class="st0" d="M12.8,16.1v1.2c1.1-0.1,1.8-0.3,1.8-0.6C14.7,16.5,13.9,16.2,12.8,16.1z"/>
</g>
<g>
	<path class="st0" d="M10.2,4c-0.2,0.3-0.6,0.4-1,0.6C8.9,4.7,8.3,4.8,7.7,4.8v1.6h2.4V8l0.4,0.1l0.1-4.7C10.5,3.7,10.4,3.9,10.2,4z
		"/>
	<path class="st0" d="M9.7,6.8h-2H7.3V6.4V4.8V4.4h0.4c0.6,0,1.1-0.1,1.5-0.2C9.5,4.1,9.8,4,9.9,3.8c0.2-0.2,0.4-0.6,0.6-1l0.1-0.1
		L3.7,5.9l6.1,2V6.8z"/>
</g>
</svg>
