<svg id="Layer_1" data-name="Layer 1" xmlns="http://www.w3.org/2000/svg" viewBox="0 0 20 20"><defs><style>.cls-1{fill:#BE1E2D;}</style></defs><g id="Group_50" data-name="Group 50"><path id="Path_22" data-name="Path 22" class="cls-1" d="M14.38,7.71h-.76v0a1.91,1.91,0,0,0-.38-3.78,1.84,1.84,0,0,0-.57.09,2.21,2.21,0,0,0-.35-.08,1.9,1.9,0,0,0-2.49-1A2,2,0,0,0,9,3.56a1.47,1.47,0,0,0-.36,0A1.9,1.9,0,0,0,5.24,4.66v0a1.91,1.91,0,0,0,0,3.74v6.9a1.9,1.9,0,0,0,1.9,1.9h4.58a1.9,1.9,0,0,0,1.9-1.9V13.05h.76a1.9,1.9,0,0,0,1.91-1.91V9.62A1.91,1.91,0,0,0,14.38,7.71ZM4.47,6.57A1.14,1.14,0,0,1,5.59,5.43h.07A.34.34,0,0,0,6,5.29.36.36,0,0,0,6,5,1.12,1.12,0,0,1,6.8,3.57a1,1,0,0,1,.34,0,1.14,1.14,0,0,1,1,.59.4.4,0,0,0,.39.19h0a1.09,1.09,0,0,1,.51.06.38.38,0,0,0,.48-.19,1.14,1.14,0,0,1,2.13.22.35.35,0,0,0,.38.28h0a1.07,1.07,0,0,1,.43.09.45.45,0,0,0,.28,0,1.12,1.12,0,0,1,.44-.09,1.14,1.14,0,0,1,1.14,1.15,1.12,1.12,0,0,1-.4.86.36.36,0,0,0,0-.1.38.38,0,0,0-.38-.38H5.24A.38.38,0,1,0,5.2,7h0v.69A1.15,1.15,0,0,1,4.47,6.57Zm8.39,8.77a1.14,1.14,0,0,1-1.14,1.14H7.14A1.14,1.14,0,0,1,6,15.34V7h6.86v8.39Zm2.67-4.2a1.16,1.16,0,0,1-1.15,1.15h-.76V8.48h.76a1.15,1.15,0,0,1,1.15,1.14Z"/><path id="Path_23" data-name="Path 23" class="cls-1" d="M7.14,7.71a.38.38,0,0,0-.38.38V15a.38.38,0,0,0,.76,0V8.09A.38.38,0,0,0,7.14,7.71Z"/><path id="Path_24" data-name="Path 24" class="cls-1" d="M8.67,7.71a.38.38,0,0,0-.38.38V15a.38.38,0,1,0,.76,0V8.09A.38.38,0,0,0,8.67,7.71Z"/><path id="Path_25" data-name="Path 25" class="cls-1" d="M10.19,7.71a.38.38,0,0,0-.38.38V15a.38.38,0,1,0,.76,0V8.09A.38.38,0,0,0,10.19,7.71Z"/><path id="Path_26" data-name="Path 26" class="cls-1" d="M11.72,7.71a.4.4,0,0,0-.39.38V15a.39.39,0,0,0,.39.39A.38.38,0,0,0,12.1,15V8.09A.38.38,0,0,0,11.72,7.71Z"/></g></svg>