<?xml version="1.0" encoding="utf-8"?>
<!-- Generator: Adobe Illustrator 25.4.1, SVG Export Plug-In . SVG Version: 6.00 Build 0)  -->
<svg version="1.1" id="Layer_1" xmlns="http://www.w3.org/2000/svg" xmlns:xlink="http://www.w3.org/1999/xlink" x="0px" y="0px"
	 viewBox="0 0 64 52.3" style="enable-background:new 0 0 64 52.3;" xml:space="preserve">
<path d="M42.3,26.2c0,5.6-4.6,10.3-10.2,10.3c-5.6,0-10.3-4.6-10.3-10.2c0-5.6,4.6-10.3,10.2-10.3C37.6,15.9,42.2,20.5,42.3,26.2z"
	/>
<path d="M24.8,36.4c-0.2,0-0.3,0-0.5,0c-4.5,0-9,0-13.4,0c-0.3,0-0.5-0.1-0.6-0.4C7.2,29,7.4,22,10.8,15.1c0-0.1,0.1-0.1,0.1-0.2
	c0.1,0.2,0.2,0.3,0.3,0.5c2.9,5.1,5.9,10.2,8.8,15.3C22,33.9,22,33.9,24.8,36.4z"/>
<path d="M39.2,15.9c0.2,0,0.3,0,0.4,0c4.5,0,9,0,13.5,0c0.3,0,0.4,0,0.6,0.3c3.1,7.1,2.9,14.1-0.5,21c0,0.1-0.1,0.1-0.1,0.2
	c0,0,0,0-0.1,0c-0.1-0.2-0.2-0.4-0.3-0.6c-3.1-5.5-6.3-10.9-9.4-16.4c-1-1.7-2.2-3.3-3.8-4.4C39.4,16.1,39.3,16,39.2,15.9z"/>
<path d="M32.7,50c0.1-0.2,0.2-0.3,0.2-0.5c3.2-5.5,6.3-10.9,9.5-16.4c1-1.8,1.8-3.6,2-5.6c0,0,0,0,0.1-0.1c0.1,0.1,0.2,0.3,0.2,0.4
	c2.2,3.8,4.4,7.7,6.7,11.5c0.2,0.3,0.2,0.6-0.1,0.9c-4.2,5.6-9.8,8.9-16.8,9.7C34,50,33.4,50,32.9,50C32.9,50,32.8,50,32.7,50z"/>
<path d="M26.8,14.7c0.8-1.3,1.5-2.6,2.3-4c1.5-2.7,3.1-5.4,4.6-8c0.1-0.2,0.3-0.4,0.6-0.3C41.7,3.2,47.6,6.8,51.9,13
	c0.1,0.2,0.3,0.4,0.4,0.7c-0.3,0-0.4,0-0.6,0c-6,0-12,0-18.1,0C31.3,13.6,29,13.8,26.8,14.7z"/>
<path d="M31.3,2.3c-0.1,0.3-0.2,0.4-0.3,0.6c-3.2,5.5-6.3,11-9.5,16.4c-1,1.7-1.7,3.5-2,5.5c0,0,0,0-0.1,0.1
	c-0.1-0.1-0.2-0.3-0.2-0.4c-2.2-3.8-4.4-7.7-6.7-11.5c-0.2-0.3-0.2-0.5,0-0.7c4-5.4,9.4-8.7,16.1-9.7C29.5,2.4,30.4,2.4,31.3,2.3z"
	/>
<path d="M37.2,37.6c-1,1.7-1.9,3.3-2.9,5c-1.4,2.3-2.7,4.7-4.1,7C30.2,49.9,30,50,29.7,50c-6.4-0.7-11.7-3.5-15.9-8.3
	c-0.8-0.9-1.4-1.9-2.1-2.8c0,0,0.1-0.1,0.1-0.1c0.2,0,0.4,0,0.5,0c6.1,0,12.2,0,18.3,0C32.9,38.7,35.1,38.6,37.2,37.6z"/>
</svg>
