<?xml version="1.0" encoding="utf-8"?>
<!-- Generator: Adobe Illustrator 25.4.1, SVG Export Plug-In . SVG Version: 6.00 Build 0)  -->
<svg version="1.1" id="Layer_1" xmlns="http://www.w3.org/2000/svg" xmlns:xlink="http://www.w3.org/1999/xlink" x="0px" y="0px"
	 viewBox="0 0 394.8 386.9" style="enable-background:new 0 0 394.8 386.9;" xml:space="preserve">
<g>
	<path d="M197.5,372c-43.9,0-87.7,0-131.6,0c-7.5,0-9.4-1.9-9.4-9.2c0-60.1,0-120.3,0-180.4c0-2.5,0.7-4.1,2.6-5.7
		c45.2-37.4,90.5-74.8,135.6-112.3c2.2-1.9,3.5-1.6,5.6,0.1C245.1,101.7,290,138.9,335,176c2.3,1.9,3.3,3.8,3.3,6.9
		c-0.1,59.8-0.1,119.5-0.1,179.3c0,8.1-1.7,9.8-9.9,9.8C284.7,372,241.1,372,197.5,372z M121.7,269.7c-14.2,6.6-27.7,12.8-41.1,19.1
		c-11.3,5.3-15.1,15.7-9.9,27.1c3,6.6,6.1,13.1,9.2,19.7c6,12.8,16.1,16.5,28.9,10.6c28.3-13.1,56.6-26.3,84.8-39.5
		c2.7-1.3,4.9-1.3,7.7,0c28.7,13.5,57.4,26.9,86.2,40.2c11,5.1,21.7,1.2,26.9-9.8c3.3-6.9,6.5-13.8,9.7-20.7
		c5.4-11.8,1.7-22.1-10-27.6c-7.5-3.5-14.9-7-22.4-10.4c-5.9-2.8-11.9-5.6-18.2-8.6c1.6-0.8,2.7-1.4,3.8-1.9
		c12.6-5.9,25.2-11.6,37.6-17.6c10.7-5.1,14.4-15.6,9.5-26.3c-3.2-7-6.5-14-9.8-21c-5.5-11.7-15.9-15.5-27.6-10.1
		c-28.3,13.1-56.6,26.3-84.8,39.6c-3.4,1.6-6,1.5-9.4,0c-28.2-13.3-56.5-26.4-84.8-39.6c-11.7-5.4-22.1-1.6-27.6,10.1
		c-3.3,7-6.6,14-9.8,21c-4.9,10.9-1,21.5,9.8,26.6c1.4,0.6,2.7,1.2,4.1,1.8C96.5,258,108.7,263.7,121.7,269.7z"/>
	<path d="M36.1,178c-5.8,0-16-11.6-14.9-16c0.4-1.8,1.9-3.5,3.3-4.7c30.8-25.6,61.7-51.2,92.6-76.7c24.3-20.1,48.7-40.3,73-60.4
		c6.7-5.5,7.9-5.5,14.4-0.1c54.9,45.5,109.8,91,164.7,136.5c5.8,4.8,6,7.6,0.9,13.3c-1.4,1.6-2.8,3.2-4.2,4.8c-4,4.5-7,4.8-11.5,1
		c-15-12.4-30-24.9-45-37.3C274,109,238.6,79.6,203.2,50.3c-4.7-3.9-7-3.9-11.8,0.1c-50,41.4-100.1,82.8-150.1,124.2
		C39.4,176.2,37.2,177.3,36.1,178z"/>
	<path d="M338.2,113.7c-1.2-0.8-2-1.2-2.6-1.8c-9.1-7.6-18.3-15.1-27.3-22.8c-1.1-1-2-2.8-2.1-4.3c-0.2-8.2-0.1-16.5-0.1-24.7
		c0-5.4,2.3-7.7,7.8-7.8c5.6-0.1,11.2-0.1,16.9,0c4.8,0.1,7.4,2.4,7.4,7.1C338.3,77.3,338.2,95.1,338.2,113.7z"/>
	<path d="M313.6,307.3c-0.2,0.7-0.6,1.9-1.1,3c-3.2,7-6.5,14-9.8,21c-2.3,4.9-5.4,6-10.4,3.7c-68.7-32-137.5-64-206.2-96
		c-5.2-2.4-6.2-5.3-3.7-10.5c3.1-6.8,6.3-13.6,9.5-20.3c2.4-5.1,5.4-6.2,10.6-3.8c68.6,31.9,137.3,63.9,205.9,95.8
		C311.3,301.5,313.5,303.3,313.6,307.3z M286.9,307.9c-0.1-3.6-3.1-6.4-6.6-6.2c-3.4,0.2-6.1,3-6.1,6.4c0,3.5,2.9,6.4,6.5,6.3
		C284.2,314.3,287,311.5,286.9,307.9z M120.5,231.5c0.1-3.5-2.8-6.4-6.3-6.4c-3.5,0-6.2,2.5-6.3,6c-0.1,3.6,2.6,6.6,6.1,6.7
		C117.4,237.9,120.4,235,120.5,231.5z"/>
	<path d="M181.7,297.9c-1.4,0.7-2.4,1.4-3.5,1.9c-25,11.6-50,23.2-75,34.8c-6.1,2.8-8.8,1.9-11.6-4.1c-3.1-6.7-6.3-13.3-9.3-20
		c-2.3-5-1.2-7.9,3.8-10.2c16-7.5,32.1-15,48.2-22.4c1.3-0.6,3.2-0.8,4.5-0.2c13.8,6.3,27.6,12.8,41.4,19.2
		C180.5,297.2,180.9,297.5,181.7,297.9z M120.5,308.2c0.1-3.5-2.8-6.5-6.3-6.5c-3.4,0-6.2,2.6-6.4,6c-0.2,3.6,2.4,6.5,6,6.7
		C117.4,314.5,120.4,311.7,120.5,308.2z"/>
	<path d="M213.2,241.2c22.8-10.6,45.4-21.1,68.1-31.7c4-1.8,7.9-3.8,11.9-5.5c4.2-1.8,7.3-0.7,9.3,3.4c3.5,7.3,7,14.6,10.3,22
		c1.9,4.2,0.8,7.3-3.4,9.3c-16.5,7.8-33,15.5-49.5,23.1c-1,0.4-2.5,0.5-3.4,0.1c-14.2-6.5-28.3-13.1-42.4-19.7
		C213.7,242,213.6,241.8,213.2,241.2z M286.9,231.3c0-3.6-2.8-6.3-6.5-6.2c-3.4,0.1-6.1,2.8-6.2,6.2c-0.1,3.5,2.9,6.5,6.3,6.5
		C284,237.8,286.9,234.9,286.9,231.3z"/>
</g>
</svg>
