<?xml version="1.0" encoding="utf-8"?>
<!-- Generator: Adobe Illustrator 25.4.1, SVG Export Plug-In . SVG Version: 6.00 Build 0)  -->
<svg version="1.1" id="Layer_1" xmlns="http://www.w3.org/2000/svg" xmlns:xlink="http://www.w3.org/1999/xlink" x="0px" y="0px"
	 viewBox="0 0 128 128" style="enable-background:new 0 0 128 128;" xml:space="preserve">
<path d="M72,112.4c0-0.7,0-1.3,0-1.9c0-10.7,0-21.4,0-32.1c0-1.1,0.1-2.2,0.2-3.3c0.3-4.1,3.3-7.6,7.4-8.9c3.7-1.2,7.9,0.2,10.5,3.2
	c1.9,2.2,2.6,4.8,2.6,7.7c0,11.2,0,22.4,0,33.7c0,0.5,0,1,0,1.5c7,0,13.7,0,20.5,0c0-0.6,0-1,0-1.5c0-12.3,0-24.6,0-36.9
	c0-8.5-3.5-15.2-10.3-20.2c-9.1-6.7-20.8-5.7-28.6,2.3c-0.8,0.8-1.4,1.6-2.4,2.7c0-2.9,0-5.5,0-8.1c-6.9,0-13.6,0-20.4,0
	c0,20.6,0,41.1,0,61.6C58.3,112.4,65.1,112.4,72,112.4z M37.5,112.4c0-20.6,0-41.1,0-61.6c-6.8,0-13.6,0-20.3,0
	c0,20.6,0,41.1,0,61.6C24,112.4,30.7,112.4,37.5,112.4z M39.7,26.5c0-6.7-5.5-12.3-12.3-12.3c-6.9,0-12.3,5.1-12.4,12.3
	c0,7.1,5.4,12.3,12.3,12.3C34.2,38.9,39.7,33.4,39.7,26.5z"/>
</svg>
